<svg width="17" height="17" viewBox="0 0 17 17" fill="none" xmlns="http://www.w3.org/2000/svg">
<path d="M10.625 16.1146H6.375C2.52875 16.1146 0.885414 14.4712 0.885414 10.625V6.37499C0.885414 2.52874 2.52875 0.885406 6.375 0.885406H10.625C14.4712 0.885406 16.1146 2.52874 16.1146 6.37499V10.625C16.1146 14.4712 14.4712 16.1146 10.625 16.1146ZM6.375 1.94791C3.10958 1.94791 1.94791 3.10957 1.94791 6.37499V10.625C1.94791 13.8904 3.10958 15.0521 6.375 15.0521H10.625C13.8904 15.0521 15.0521 13.8904 15.0521 10.625V6.37499C15.0521 3.10957 13.8904 1.94791 10.625 1.94791H6.375Z" fill="#333333"/>
<path d="M7.60728 11.5318C7.47269 11.5318 7.33811 11.4822 7.23186 11.3759C7.02644 11.1705 7.02644 10.8305 7.23186 10.6251L9.35686 8.50011L7.23186 6.37511C7.02644 6.16969 7.02644 5.82969 7.23186 5.62428C7.43728 5.41886 7.77728 5.41886 7.98269 5.62428L10.4831 8.12469C10.6885 8.33011 10.6885 8.67011 10.4831 8.87553L7.98269 11.3759C7.87644 11.4822 7.74186 11.5318 7.60728 11.5318Z" fill="#333333"/>
</svg>
