<svg width="17" height="17" viewBox="0 0 17 17" fill="none" xmlns="http://www.w3.org/2000/svg">
<path d="M14.6304 6.74986L14.6302 6.74968C13.0636 4.28788 10.8132 2.92958 8.5 2.92958C7.33955 2.92958 6.20415 3.26795 5.15715 3.91051C4.10962 4.56047 3.15573 5.51653 2.36963 6.74986L14.6304 6.74986ZM14.6304 6.74986C14.9223 7.20824 15.0833 7.84083 15.0833 8.49911C15.0833 9.15754 14.9223 9.78767 14.6311 10.2418L14.6304 10.2429C13.8443 11.4763 12.8904 12.4325 11.8428 13.0825C10.7958 13.725 9.66041 14.0633 8.5 14.0633C6.1862 14.0633 3.93617 12.7115 2.37008 10.2438L2.36963 10.2431M14.6304 6.74986L2.36963 10.2431M2.36963 10.2431C2.07754 9.78447 1.91666 9.15356 1.91666 8.49646M2.36963 10.2431L1.91666 8.49646M1.91666 8.49646C1.91666 7.83941 2.07751 7.20856 2.36955 6.74998L1.91666 8.49646ZM5.13833 8.5C5.13833 10.3549 6.63638 11.8617 8.5 11.8617C10.3636 11.8617 11.8617 10.3549 11.8617 8.5C11.8617 6.64508 10.3636 5.13833 8.5 5.13833C6.63638 5.13833 5.13833 6.64508 5.13833 8.5Z" stroke="#BDBDBD"/>
<path d="M8.5 6.47417C7.38791 6.47417 6.48125 7.38083 6.48125 8.5C6.48125 9.61208 7.38791 10.5188 8.5 10.5188C9.61208 10.5188 10.5258 9.61208 10.5258 8.5C10.5258 7.38792 9.61208 6.47417 8.5 6.47417Z" fill="#BDBDBD"/>
</svg>
